<svg width="44" height="44" viewBox="0 0 44 44" fill="none" xmlns="http://www.w3.org/2000/svg">
<rect width="44" height="44" fill="#C9E2E7"/>
<path fill-rule="evenodd" clip-rule="evenodd" d="M13.8333 32.5L16.1667 20.8333C13.5893 20.8333 11.5 18.744 11.5 16.1667C11.5 13.5893 13.5893 11.5 16.1667 11.5C18.744 11.5 20.8333 13.5883 20.8333 16.1667C20.8333 18.745 16.1667 32.5 16.1667 32.5H13.8333ZM25.5 32.5L27.8333 20.8333C25.256 20.8333 23.1667 18.744 23.1667 16.1667C23.1667 13.5893 25.256 11.5 27.8333 11.5C30.4107 11.5 32.5 13.5883 32.5 16.1667C32.5 18.745 27.8333 32.5 27.8333 32.5H25.5Z" fill="#382BA7"/>
</svg>
