<svg width="390" height="90" viewBox="0 0 390 90" fill="none" xmlns="http://www.w3.org/2000/svg">
<path d="M157.624 0.120316V11.0643H144.44V42.3603H129.528V11.0643H116.28V0.120316H157.624Z" fill="white"/>
<path d="M203.483 0.120316V42.3603H188.571V0.120316H203.483ZM176.987 0.120316V42.3603H162.075V0.120316H176.987ZM196.827 15.6723V26.6163H169.243V15.6723H196.827Z" fill="white"/>
<path d="M224.799 0.120316V42.3603H209.887V0.120316H224.799Z" fill="white"/>
<path d="M272.544 0.120316V42.3603H256.416L246.304 23.1603L244 17.9763H243.872L244.128 26.6803V42.3603H231.2V0.120316H247.328L257.44 19.3843L259.744 24.5043H259.872L259.616 15.8003V0.120316H272.544Z" fill="white"/>
<path d="M320.742 0.120316L300.006 27.0643L299.366 23.8003L290.086 36.4723L286.63 26.1683L304.87 0.120316H320.742ZM293.862 0.120316V42.3603H278.95V0.120316H293.862ZM305.638 12.9843L321.894 42.3603H305.19L294.694 21.2403L305.638 12.9843Z" fill="white"/>
<path d="M140.6 47.1203C144.398 47.1203 147.619 47.6963 150.264 48.8483C152.91 50.0003 154.915 51.6856 156.28 53.9043C157.646 56.123 158.328 58.8323 158.328 62.0323C158.328 65.2323 157.646 67.9416 156.28 70.1603C154.915 72.379 152.91 74.0643 150.264 75.2163C147.619 76.3683 144.398 76.9443 140.6 76.9443H133.112V89.3603H118.2V47.1203H140.6ZM138.168 66.3843C139.79 66.3843 141.07 66.043 142.008 65.3603C142.947 64.635 143.416 63.5256 143.416 62.0323C143.416 60.539 142.947 59.451 142.008 58.7683C141.07 58.043 139.79 57.6803 138.168 57.6803H133.112V66.3843H138.168Z" fill="white"/>
<path d="M186.3 47.1203C191.804 47.1203 196.028 48.3576 198.972 50.8323C201.916 53.2643 203.388 56.507 203.388 60.5603C203.388 65.211 201.937 68.7096 199.036 71.0563C196.177 73.403 191.996 74.5763 186.492 74.5763L185.02 75.3443H177.98V89.3603H163.388V47.1203H186.3ZM183.74 65.5523C185.318 65.5523 186.492 65.275 187.26 64.7203C188.07 64.123 188.476 63.099 188.476 61.6483C188.476 60.2403 188.07 59.2376 187.26 58.6403C186.492 58.043 185.318 57.7443 183.74 57.7443H177.98V65.5523H183.74ZM192.572 68.6883L205.756 89.3603H189.564L179.708 70.8643L192.572 68.6883Z" fill="white"/>
<path d="M228.235 46.4803C232.715 46.4803 236.555 47.3336 239.755 49.0403C242.955 50.747 245.409 53.2216 247.115 56.4643C248.822 59.707 249.675 63.6323 249.675 68.2403C249.675 72.8483 248.822 76.7736 247.115 80.0163C245.409 83.259 242.955 85.7337 239.755 87.4403C236.555 89.147 232.715 90.0003 228.235 90.0003C223.798 90.0003 219.958 89.147 216.715 87.4403C213.515 85.7337 211.041 83.259 209.291 80.0163C207.585 76.7736 206.731 72.8483 206.731 68.2403C206.731 63.6323 207.585 59.707 209.291 56.4643C211.041 53.2216 213.515 50.747 216.715 49.0403C219.958 47.3336 223.798 46.4803 228.235 46.4803ZM228.235 57.6803C226.785 57.6803 225.59 58.0643 224.651 58.8323C223.755 59.5576 223.073 60.6883 222.603 62.2243C222.177 63.7603 221.963 65.7656 221.963 68.2403C221.963 70.6723 222.177 72.6777 222.603 74.2563C223.073 75.7923 223.755 76.9443 224.651 77.7123C225.59 78.4376 226.785 78.8003 228.235 78.8003C229.686 78.8003 230.859 78.4376 231.755 77.7123C232.694 76.9443 233.377 75.7923 233.803 74.2563C234.23 72.6777 234.443 70.6723 234.443 68.2403C234.443 65.7656 234.23 63.7603 233.803 62.2243C233.377 60.6883 232.694 59.5576 231.755 58.8323C230.859 58.0643 229.686 57.6803 228.235 57.6803Z" fill="white"/>
<path d="M289.708 58.0643H269.612V63.9523H285.868V74.8963H269.612V89.3603H254.7V47.1203H289.708V58.0643Z" fill="white"/>
<path d="M308.925 47.1203V89.3603H294.013V47.1203H308.925Z" fill="white"/>
<path d="M330.237 78.4163H349.373V89.3603H315.325V47.1203H330.237V78.4163Z" fill="white"/>
<path d="M354.075 89.3603V47.1203H389.147V58.0643H368.987V63.3123H385.243V73.4243H368.987V78.4163H389.915V89.3603H354.075Z" fill="white"/>
<path d="M44.6802 89.3603L1.52588e-05 89.3603L7.44666e-06 3.90606e-06L44.6802 0L44.6802 89.3603Z" fill="#382BA7"/>
<path d="M36.4145 58.8661C36.4146 66.5774 30.1633 72.8287 22.452 72.8287V72.8287C14.7407 72.8287 8.48945 66.5774 8.48945 58.8661L8.48945 30.941C8.48945 23.2297 14.7407 16.9785 22.452 16.9785V16.9785C30.1633 16.9785 36.4145 23.2297 36.4145 30.941L36.4145 58.8661Z" fill="#C9E2E7"/>
<path d="M97 44.6802L52.3198 44.6802L52.3198 7.72076e-06L97 3.8147e-06L97 44.6802Z" fill="#F9AEC5"/>
<path d="M76.335 33.0633L72.9839 33.0633L72.9839 12.9573L76.335 12.9573L76.335 33.0633Z" fill="#FF2227"/>
<path d="M82.9531 28.9341L80.5836 31.3036L66.3665 17.0865L68.736 14.7169L82.9531 28.9341Z" fill="#FF2227"/>
<path d="M66.3657 28.9341L68.7352 31.3036L82.9524 17.0864L80.5829 14.7169L66.3657 28.9341Z" fill="#FF2227"/>
<path d="M84.7124 21.3348L84.7124 24.6858L64.6063 24.6858L64.6063 21.3348L84.7124 21.3348Z" fill="#FF2227"/>
<path d="M89 89.3603L44.3198 89.3603L44.3198 44.6802L89 44.6802L89 89.3603Z" fill="#0E7C55"/>
<path d="M66.6152 55.7608L67.3113 59.9869C67.9339 63.7667 70.8964 66.7292 74.6762 67.3518L78.9022 68.0479L74.6762 68.744C70.8964 69.3666 67.9339 72.3291 67.3113 76.1089L66.6152 80.3349L65.9191 76.1089C65.2965 72.3291 62.334 69.3666 58.5542 68.744L54.3281 68.0479L58.5542 67.3518C62.334 66.7292 65.2965 63.7667 65.9191 59.9869L66.6152 55.7608Z" fill="white"/>
</svg>
